<?xml version="1.0" encoding="UTF-8" ?>
<!DOCTYPE svg PUBLIC "-//W3C//DTD SVG 1.1//EN" "http://www.w3.org/Graphics/SVG/1.1/DTD/svg11.dtd">
<svg width="228pt" height="233pt" viewBox="0 0 228 233" version="1.1" xmlns="http://www.w3.org/2000/svg">
<g id="#ffffffff">
<path fill="#ffffff" opacity="1.00" d=" M 177.41 16.53 C 177.77 16.40 178.49 16.13 178.85 16.00 C 179.17 18.85 178.42 21.66 176.94 24.10 C 175.14 21.77 176.76 18.98 177.41 16.53 Z" />
<path fill="#ffffff" opacity="1.00" d=" M 172.95 31.79 C 177.16 29.68 180.76 24.80 185.78 25.27 C 187.82 28.16 184.36 31.05 183.98 34.02 C 185.86 33.18 187.62 32.11 189.56 31.42 C 186.95 37.12 182.29 41.63 179.40 47.22 C 180.09 48.84 180.75 50.47 181.33 52.14 C 179.49 52.89 177.57 53.37 175.60 53.62 C 175.69 55.06 175.85 56.50 175.80 57.94 C 174.01 61.10 171.23 63.64 169.84 67.03 C 168.93 69.36 168.46 71.90 167.00 73.98 C 161.89 81.53 156.66 88.99 151.56 96.54 C 149.14 100.48 144.96 102.78 142.05 106.30 C 142.27 107.45 142.54 108.58 142.79 109.72 C 138.78 115.42 136.64 123.32 129.62 126.16 C 132.68 120.23 136.38 114.16 136.73 107.35 C 136.29 106.75 135.40 105.55 134.96 104.95 C 133.54 108.47 133.55 112.85 130.50 115.49 C 128.16 117.83 127.61 121.24 126.08 124.06 C 124.12 128.64 120.67 132.29 117.56 136.08 C 119.06 136.80 120.56 137.51 122.05 138.26 C 119.58 140.58 116.62 142.83 113.06 142.78 C 108.61 143.32 105.03 140.21 100.91 139.20 C 101.34 140.37 101.65 141.61 102.33 142.68 C 105.31 144.52 108.74 145.50 111.70 147.43 C 111.69 148.02 111.67 149.21 111.66 149.81 C 108.64 150.70 105.49 150.34 102.40 150.57 C 99.75 151.15 97.76 153.15 95.95 155.03 C 100.00 155.69 102.81 160.58 100.88 164.32 C 96.75 166.32 95.99 158.73 92.39 159.45 C 91.41 162.65 93.74 165.69 93.19 168.91 C 92.81 171.63 92.41 174.49 90.78 176.79 C 89.00 178.90 85.38 178.42 83.93 180.88 C 76.05 193.65 68.33 206.94 57.13 217.12 C 53.76 219.32 51.59 222.68 49.43 225.98 C 48.22 224.87 47.12 223.65 46.07 222.40 C 38.90 223.41 31.72 222.19 24.59 221.46 C 22.91 218.42 20.20 216.23 17.65 213.96 C 20.30 207.85 22.98 201.50 27.60 196.58 C 29.16 194.78 31.58 194.22 33.86 194.32 C 35.30 189.56 35.95 184.25 39.48 180.46 C 41.37 178.03 44.25 176.77 46.96 175.51 C 48.96 176.63 50.90 177.86 53.04 178.71 C 52.79 175.70 52.31 172.73 52.04 169.73 C 55.93 170.72 59.10 168.60 62.30 166.77 C 62.30 164.98 62.37 163.20 62.46 161.42 C 66.01 158.52 67.99 154.32 70.86 150.84 C 71.77 151.91 72.66 153.01 73.54 154.12 C 72.72 155.71 71.96 157.34 71.23 158.98 C 73.70 158.72 76.60 158.24 77.68 155.65 C 82.86 148.03 77.68 138.26 82.13 130.42 C 86.10 134.32 86.98 140.26 86.49 145.58 C 90.72 143.72 92.25 138.93 94.45 135.24 C 92.25 134.60 90.06 133.94 87.84 133.37 C 88.30 129.95 89.15 126.22 92.10 124.06 C 94.23 123.94 94.75 126.55 96.07 127.75 C 96.60 126.23 97.67 124.81 97.72 123.16 C 97.15 121.08 96.19 119.13 95.38 117.14 C 95.67 116.50 96.26 115.23 96.55 114.59 C 103.75 112.32 107.31 105.25 111.90 99.92 C 117.37 95.46 120.21 88.86 124.37 83.38 C 131.22 77.76 136.55 70.51 140.10 62.41 C 144.18 63.61 148.05 65.44 152.14 66.63 C 152.95 64.96 155.45 63.29 153.99 61.31 C 152.55 59.15 150.02 58.10 148.00 56.58 C 148.66 50.55 155.29 49.12 160.24 48.30 C 158.83 46.93 157.42 45.55 156.21 44.00 C 157.17 42.36 158.52 41.03 160.24 40.19 C 164.76 37.64 167.13 32.81 169.40 28.38 C 171.44 27.62 171.82 30.69 172.95 31.79 M 165.28 50.02 C 167.57 50.04 169.34 48.97 168.97 46.45 C 168.19 46.24 166.64 45.83 165.86 45.62 C 163.84 46.52 164.94 48.43 165.28 50.02 M 137.77 73.08 C 138.10 74.38 138.46 75.67 138.85 76.96 C 139.59 76.80 141.07 76.49 141.81 76.34 C 141.81 74.92 141.46 73.55 140.89 72.25 C 139.84 72.51 138.81 72.79 137.77 73.08 M 131.60 84.78 C 131.46 86.38 131.39 87.98 131.39 89.58 C 132.09 89.84 133.47 90.36 134.17 90.62 C 134.91 88.51 135.81 86.33 135.09 84.07 C 133.93 84.30 132.76 84.54 131.60 84.78 M 100.70 133.89 C 100.35 136.51 103.15 136.71 105.00 136.87 C 103.96 135.37 102.46 134.36 100.70 133.89 M 63.27 177.21 C 63.26 177.93 63.23 179.37 63.21 180.09 C 64.73 179.68 66.23 179.24 67.72 178.76 C 67.45 177.89 67.17 177.02 66.87 176.17 C 65.67 176.51 64.47 176.85 63.27 177.21 M 50.86 191.60 C 55.74 191.62 63.53 191.09 63.77 184.67 C 59.03 185.31 52.90 186.81 50.86 191.60 Z" />
<path fill="#ffffff" opacity="1.00" d=" M 69.96 145.49 C 72.66 145.89 78.07 145.42 77.46 149.57 C 74.72 148.75 71.29 148.46 69.96 145.49 Z" />
</g>
</svg>
