<?xml version="1.0" encoding="UTF-8" ?>
<!DOCTYPE svg PUBLIC "-//W3C//DTD SVG 1.1//EN" "http://www.w3.org/Graphics/SVG/1.1/DTD/svg11.dtd">
<svg width="228pt" height="233pt" viewBox="0 0 228 233" version="1.1" xmlns="http://www.w3.org/2000/svg">
<g id="#ffffffff">
<path fill="#ffffff" opacity="1.00" d=" M 70.96 6.97 C 74.40 6.76 77.18 3.99 80.69 4.17 C 83.05 5.85 84.98 8.12 87.66 9.35 C 91.78 12.15 97.11 11.87 101.22 14.70 C 103.54 16.48 106.41 15.01 108.94 14.64 C 113.81 13.27 118.74 14.95 123.54 15.81 C 123.50 18.83 123.47 21.85 123.73 24.86 C 127.14 23.76 129.19 19.98 132.95 19.87 C 137.22 19.90 141.85 20.72 144.91 23.97 C 147.91 27.66 153.33 25.46 156.97 28.06 C 160.05 30.08 163.58 31.21 167.08 32.28 C 168.03 30.80 168.99 29.31 169.97 27.84 C 171.05 29.07 172.13 30.31 173.20 31.56 C 177.36 28.94 181.23 25.44 186.28 24.73 C 186.50 27.94 185.21 30.91 184.07 33.84 C 185.85 33.13 187.64 32.45 189.47 31.84 C 187.72 35.07 185.51 38.02 183.38 41.01 C 186.46 43.78 189.74 46.39 192.32 49.66 C 194.34 52.24 194.73 55.70 196.68 58.32 C 199.36 61.34 203.58 62.72 205.62 66.38 C 207.82 70.27 211.48 73.76 211.64 78.48 C 211.74 80.83 213.50 82.62 214.47 84.66 C 217.46 89.68 217.40 95.81 220.17 100.91 C 221.49 103.52 222.89 106.09 224.18 108.71 C 222.58 110.54 220.06 112.18 220.34 114.93 C 219.92 117.08 222.23 118.14 223.38 119.56 C 222.02 123.41 220.48 127.18 218.97 130.97 C 220.43 132.53 221.87 134.10 223.21 135.77 C 221.28 135.65 219.37 135.47 217.45 135.30 C 216.73 140.28 217.95 145.12 219.09 149.91 C 217.98 153.03 217.14 156.23 217.25 159.58 C 214.78 159.34 212.33 158.99 209.88 158.67 C 211.29 162.71 211.57 167.51 215.17 170.35 C 212.76 174.81 209.55 179.99 204.05 180.69 C 200.40 179.36 197.08 176.85 192.97 177.23 C 193.46 179.70 193.83 182.64 196.16 184.12 C 201.28 184.82 206.53 183.93 211.60 185.19 C 211.71 186.31 211.81 187.44 211.90 188.57 C 210.21 188.96 208.38 189.00 206.82 189.82 C 205.03 191.42 203.48 193.28 201.73 194.93 C 204.00 198.95 206.48 202.98 207.30 207.60 C 204.44 207.29 201.70 206.39 199.00 205.44 C 199.32 207.14 199.64 208.85 199.93 210.56 C 196.70 208.25 193.65 205.68 190.80 202.92 C 191.01 204.29 191.17 205.66 191.30 207.04 C 186.66 206.18 183.03 202.58 178.27 202.18 C 179.95 204.96 181.80 207.64 183.37 210.48 C 180.28 210.16 177.30 210.93 174.45 212.05 C 174.37 208.83 174.35 205.60 174.03 202.39 C 171.29 203.82 172.41 207.23 172.17 209.71 C 166.39 209.81 161.07 212.32 157.11 216.48 C 154.55 214.75 151.85 213.10 148.72 212.71 C 148.15 215.15 147.46 217.57 146.54 219.90 C 147.44 220.70 148.33 221.52 149.21 222.36 C 145.91 222.15 142.72 220.26 139.45 220.59 C 132.69 224.35 124.60 226.97 116.91 224.73 C 113.62 223.41 110.75 225.87 107.82 226.96 C 106.85 225.01 105.81 223.10 104.85 221.16 C 101.96 221.80 100.47 224.13 99.39 226.69 C 97.17 226.73 94.90 226.95 92.72 226.42 C 91.52 225.60 91.29 223.98 90.58 222.80 C 87.50 222.80 84.36 222.77 81.45 221.61 C 78.08 223.90 74.51 221.11 71.06 220.59 C 66.77 219.82 63.11 217.32 59.02 216.01 C 54.80 218.03 52.09 222.00 49.43 225.67 C 48.22 224.69 47.06 223.65 45.76 222.79 C 38.99 222.52 32.08 223.00 25.43 221.39 C 22.50 219.34 20.45 216.18 17.71 213.85 C 19.52 208.96 22.25 204.51 24.62 199.90 C 23.45 197.50 20.30 196.48 18.59 194.36 C 15.25 191.06 17.38 185.83 15.27 181.97 C 13.88 180.25 11.84 179.25 10.07 177.99 C 11.27 172.69 13.01 167.53 15.20 162.56 C 17.65 162.46 20.11 162.29 22.54 161.96 C 22.59 161.30 22.69 160.00 22.74 159.34 C 20.14 158.77 16.97 159.10 15.03 156.94 C 12.96 154.86 12.18 151.94 11.22 149.26 C 12.67 148.57 14.13 147.93 15.58 147.27 C 15.16 143.33 15.46 139.39 15.95 135.48 C 12.28 134.59 8.36 133.86 4.84 135.73 C 5.35 134.06 6.02 132.43 6.33 130.72 C 5.84 127.67 2.03 124.62 4.70 121.74 C 6.02 120.77 7.71 120.60 9.26 120.20 C 8.91 122.51 6.69 124.82 7.63 127.16 C 9.93 127.65 12.28 127.80 14.62 128.00 C 14.04 129.22 13.46 130.44 12.91 131.68 C 14.72 131.42 16.75 131.62 18.24 130.36 C 18.73 127.84 18.62 125.26 18.69 122.70 C 17.37 122.28 16.06 121.85 14.74 121.42 C 16.19 117.27 19.37 114.16 21.94 110.71 C 19.10 110.61 16.26 110.66 13.42 110.67 C 11.12 107.70 8.83 104.73 6.54 101.77 C 9.08 97.21 13.59 94.42 18.67 93.54 C 16.02 88.68 15.14 81.73 19.68 77.69 C 23.44 76.88 27.33 77.69 31.14 77.29 C 29.68 75.72 28.06 74.31 26.35 73.01 C 27.12 71.38 27.87 69.74 28.61 68.09 C 26.83 65.84 25.04 63.60 23.06 61.52 C 22.20 62.34 21.32 63.14 20.41 63.91 C 19.60 62.84 18.78 61.78 17.95 60.73 C 19.54 58.71 21.78 57.10 22.87 54.74 C 23.49 48.12 23.68 41.27 25.95 34.95 C 28.40 32.52 30.86 29.80 33.99 28.29 C 39.43 30.22 44.00 33.92 48.67 37.19 C 48.76 34.51 48.84 31.83 48.92 29.15 C 52.22 27.76 57.33 27.21 57.96 22.89 C 59.35 18.94 56.53 15.33 55.22 11.78 C 60.07 9.12 65.42 7.33 70.96 6.97 M 66.61 14.60 C 67.84 14.54 69.06 14.48 70.29 14.41 C 70.48 13.66 70.87 12.17 71.07 11.42 C 69.21 11.95 67.30 12.60 66.61 14.60 M 63.98 21.29 C 62.62 26.70 67.38 30.80 70.11 34.85 C 70.81 34.81 72.23 34.71 72.93 34.67 C 71.90 31.83 70.54 29.07 70.07 26.06 C 70.36 23.60 71.56 21.36 72.38 19.04 C 69.55 19.38 65.86 18.54 63.98 21.29 M 101.49 22.50 C 101.11 24.89 101.91 27.27 102.20 29.63 C 100.48 29.10 98.47 29.09 97.01 27.95 C 95.51 26.18 94.63 24.00 93.47 22.01 C 92.54 23.36 90.97 24.73 91.41 26.55 C 93.90 30.12 97.86 32.90 102.18 33.62 C 104.47 33.24 105.74 30.53 108.16 30.24 C 111.98 29.71 114.94 27.14 118.12 25.17 C 114.69 24.00 111.18 24.93 107.79 25.70 C 107.38 23.69 106.95 21.68 106.52 19.68 C 104.75 20.40 102.60 20.79 101.49 22.50 M 151.74 28.02 C 151.58 28.86 151.26 30.54 151.10 31.38 C 152.94 30.68 154.74 29.90 156.50 29.03 C 154.92 28.64 153.33 28.31 151.74 28.02 M 74.94 40.97 C 73.14 43.61 71.42 46.34 70.44 49.40 C 68.31 54.60 69.48 60.57 66.36 65.44 C 68.94 65.37 71.53 65.25 74.11 65.14 C 74.16 68.38 74.53 71.75 76.48 74.46 C 78.74 75.66 81.59 75.69 83.47 77.55 C 85.91 79.92 88.63 81.96 91.09 84.29 C 91.50 85.60 91.04 86.41 89.70 86.70 C 87.57 86.83 85.59 85.81 83.56 85.33 C 83.62 91.76 90.56 94.21 95.97 94.36 C 101.16 94.44 106.56 94.30 111.18 97.11 C 107.02 100.93 101.24 101.16 95.92 100.93 C 97.70 104.70 101.36 106.83 104.81 108.84 C 106.85 105.32 109.42 102.16 112.44 99.43 C 116.55 95.72 119.42 90.94 122.29 86.26 C 124.39 82.80 127.81 80.48 130.49 77.51 C 134.62 73.13 137.45 67.76 140.18 62.45 C 144.21 63.77 148.15 65.32 152.17 66.65 C 153.05 65.11 153.92 63.57 154.77 62.01 C 152.62 59.87 149.65 58.30 148.53 55.33 C 147.59 53.06 146.27 50.99 145.04 48.87 C 146.72 49.77 148.35 50.75 149.96 51.76 C 152.62 50.50 155.36 49.42 158.11 48.38 C 153.21 46.34 147.91 45.63 142.94 43.88 C 138.28 40.32 135.67 34.64 130.61 31.51 C 130.97 35.23 132.71 38.57 133.65 42.14 C 134.33 44.10 132.63 45.54 131.38 46.73 C 129.24 44.21 127.38 41.18 124.27 39.75 C 121.72 38.81 119.22 41.25 116.64 40.30 C 112.29 38.82 107.72 39.47 103.25 39.55 C 100.44 37.97 97.93 35.79 94.72 35.01 C 90.20 33.71 86.45 30.68 81.99 29.27 C 78.72 32.56 77.49 37.19 74.94 40.97 M 66.61 39.75 C 66.46 41.04 66.30 42.34 66.14 43.63 C 66.80 43.60 68.13 43.55 68.79 43.52 C 69.33 41.92 69.84 40.32 70.32 38.71 C 69.08 39.04 67.84 39.38 66.61 39.75 M 171.04 64.28 C 169.47 68.20 168.29 72.34 165.80 75.81 C 161.00 82.68 156.30 89.63 151.54 96.53 C 149.23 100.13 145.33 102.28 142.94 105.78 C 141.97 112.72 137.91 118.74 133.49 124.00 C 138.39 127.92 142.04 133.16 147.13 136.87 C 150.34 139.28 153.92 141.37 156.24 144.76 C 160.87 151.13 167.28 155.84 173.95 159.86 C 172.31 164.02 170.14 167.98 168.95 172.31 C 169.82 172.70 171.58 173.47 172.45 173.85 C 175.33 168.48 176.67 162.52 177.80 156.58 C 178.37 152.56 181.53 149.62 182.49 145.74 C 184.51 137.04 184.17 128.05 184.46 119.20 C 184.65 115.45 188.93 114.65 191.73 113.52 C 186.99 105.62 183.85 96.92 181.45 88.06 C 183.48 87.40 185.57 86.93 187.61 86.26 C 187.61 85.35 187.61 84.43 187.62 83.52 C 185.43 82.59 182.93 82.18 181.02 80.71 C 180.03 75.67 177.72 71.08 176.06 66.26 C 174.46 65.42 172.72 64.91 171.04 64.28 M 137.78 73.16 C 138.17 74.51 138.58 75.86 138.98 77.21 C 140.04 76.78 141.09 76.31 142.13 75.81 C 141.70 74.61 141.28 73.41 140.86 72.22 C 139.82 72.49 138.79 72.81 137.78 73.16 M 64.14 75.21 C 64.20 76.81 64.28 78.40 64.35 79.99 C 65.32 79.68 66.28 79.36 67.24 79.02 C 66.94 77.88 66.64 76.73 66.33 75.59 C 65.79 75.49 64.69 75.31 64.14 75.21 M 131.54 84.73 C 131.47 86.43 131.42 88.12 131.37 89.82 C 132.51 89.89 133.64 89.91 134.78 89.88 C 134.99 87.97 135.19 86.05 135.29 84.13 C 134.04 84.31 132.79 84.51 131.54 84.73 M 53.04 90.67 C 54.02 95.57 52.87 100.36 50.90 104.85 C 48.97 104.60 47.04 104.38 45.11 104.15 C 46.36 106.05 47.91 107.81 48.76 109.95 C 49.10 117.87 44.41 124.69 40.07 130.88 C 44.96 136.87 43.53 144.88 43.88 152.01 C 44.39 159.27 44.29 166.70 46.55 173.69 C 47.39 176.55 50.60 177.44 52.94 178.70 C 52.75 175.91 52.43 173.14 52.07 170.38 C 55.63 170.19 58.93 168.86 61.87 166.90 C 61.65 160.42 67.50 156.65 70.19 151.36 C 70.85 151.58 72.15 152.03 72.80 152.26 C 72.69 154.61 72.44 156.95 72.27 159.30 C 74.48 158.33 77.07 157.48 78.06 155.04 C 82.52 147.42 77.92 138.08 82.13 130.37 C 86.07 134.40 86.75 140.18 86.72 145.56 C 90.54 143.25 92.48 139.13 94.35 135.27 C 92.21 134.64 90.08 133.96 87.93 133.37 C 89.71 125.76 91.57 116.81 86.79 109.92 C 83.92 113.05 79.94 116.26 75.50 113.96 C 77.15 110.71 80.12 108.53 82.49 105.86 C 77.58 105.05 72.45 107.64 67.76 105.14 C 63.28 103.80 63.89 97.98 60.48 95.52 C 58.16 93.66 55.59 92.17 53.04 90.67 M 135.29 105.03 C 133.81 109.13 132.55 113.42 129.62 116.78 C 127.35 118.87 130.56 120.79 131.75 122.42 C 133.60 116.97 138.86 110.77 135.29 105.03 M 94.11 124.67 C 94.65 125.77 95.27 126.83 95.96 127.86 C 97.09 124.96 97.55 121.88 96.72 118.84 C 95.69 120.67 94.03 122.44 94.11 124.67 M 29.44 123.65 C 29.40 124.63 29.31 126.58 29.26 127.55 C 30.78 126.94 32.36 126.49 33.98 126.25 C 32.48 125.35 30.98 124.48 29.44 123.65 M 100.59 134.99 C 102.02 135.79 103.52 136.47 105.07 137.00 C 103.97 135.47 102.61 134.03 100.59 134.99 M 100.73 139.42 C 102.00 143.73 106.56 145.05 110.38 146.21 C 116.90 147.17 121.79 152.40 128.27 153.54 C 129.72 153.85 131.05 153.01 132.34 152.48 C 130.13 151.36 127.84 150.43 125.65 149.30 C 122.66 147.72 120.57 144.82 117.43 143.51 C 114.36 142.45 110.98 143.01 107.92 141.90 C 105.52 141.08 103.17 140.11 100.73 139.42 M 112.77 148.47 C 110.02 150.62 106.50 150.41 103.22 150.60 C 100.42 150.65 98.38 152.82 96.29 154.40 C 99.78 156.67 102.65 160.48 101.14 164.84 C 97.32 164.31 95.26 160.78 92.32 158.72 C 92.16 163.93 94.27 169.26 92.11 174.31 C 90.81 178.89 84.49 178.36 82.77 182.70 C 78.56 190.30 73.23 197.19 68.87 204.69 C 76.22 207.85 84.27 208.35 92.01 210.08 C 95.67 210.95 99.28 209.53 102.80 208.70 C 117.52 204.89 132.18 200.51 145.89 193.84 C 150.76 191.46 155.38 188.62 160.12 186.02 C 154.99 181.76 149.78 177.61 144.58 173.43 C 141.28 170.75 137.67 168.31 135.18 164.79 C 133.60 162.93 132.34 160.42 129.86 159.65 C 123.15 157.85 117.71 153.13 112.77 148.47 M 147.65 149.19 C 147.41 149.94 146.93 151.42 146.69 152.17 C 148.70 152.60 150.71 153.04 152.72 153.49 C 152.69 152.60 152.62 150.82 152.58 149.93 C 150.94 149.68 149.29 149.43 147.65 149.19 M 205.69 151.06 C 206.97 153.87 209.47 154.88 212.46 154.32 C 211.00 151.87 208.39 151.09 205.69 151.06 M 158.52 158.27 C 160.02 159.63 161.73 160.62 163.83 160.26 C 163.66 158.91 163.45 157.57 163.19 156.24 C 161.62 156.89 160.07 157.57 158.52 158.27 M 199.00 158.08 C 199.54 159.55 199.98 161.14 201.05 162.34 C 202.93 162.90 204.09 161.11 205.08 159.84 C 203.19 158.81 201.14 158.18 199.00 158.08 M 21.44 166.02 C 21.38 167.79 21.35 169.56 21.35 171.33 C 22.78 170.38 24.36 169.52 25.29 168.03 C 24.77 166.31 22.86 166.43 21.44 166.02 M 201.45 169.01 C 203.99 169.25 206.29 168.79 207.24 166.20 C 204.67 165.76 202.54 166.53 201.45 169.01 M 17.21 175.52 C 18.03 178.26 20.50 179.42 23.17 179.49 C 22.68 176.42 20.24 174.84 17.21 175.52 M 63.31 177.19 C 63.28 177.90 63.21 179.33 63.18 180.05 C 64.72 179.63 66.26 179.19 67.80 178.75 C 67.47 177.88 67.13 177.02 66.80 176.17 C 65.63 176.50 64.47 176.84 63.31 177.19 M 50.72 191.59 C 55.80 191.69 62.72 191.06 64.03 185.02 C 58.96 185.01 53.29 186.92 50.72 191.59 M 184.25 188.00 C 184.31 191.37 187.22 186.49 184.25 188.00 Z" />
<path fill="#ffffff" opacity="1.00" d=" M 105.55 8.70 C 106.69 9.79 107.81 10.89 108.92 12.01 C 108.01 11.93 106.19 11.77 105.28 11.69 C 105.35 10.94 105.49 9.44 105.55 8.70 Z" />
<path fill="#ffffff" opacity="1.00" d=" M 176.04 23.77 C 176.25 20.89 176.29 17.55 178.81 15.61 C 178.91 18.56 178.99 22.10 176.04 23.77 Z" />
<path fill="#ffffff" opacity="1.00" d=" M 17.17 69.18 C 18.57 68.40 20.00 67.65 21.43 66.92 C 21.46 67.65 21.53 69.10 21.56 69.83 C 20.09 69.63 18.63 69.42 17.17 69.18 Z" />
<path fill="#ffffff" opacity="1.00" d=" M 9.78 77.74 C 10.69 77.66 11.60 77.59 12.51 77.51 C 12.53 78.02 12.57 79.03 12.59 79.53 C 11.40 79.69 10.22 79.85 9.04 80.01 C 9.22 79.44 9.59 78.31 9.78 77.74 Z" />
<path fill="#ffffff" opacity="1.00" d=" M 92.97 91.85 C 93.57 89.06 94.25 86.00 96.96 84.47 C 96.68 86.82 96.23 89.14 95.63 91.42 C 94.97 91.53 93.63 91.74 92.97 91.85 Z" />
<path fill="#ffffff" opacity="1.00" d=" M 70.18 145.56 C 73.12 145.85 77.12 145.65 77.69 149.40 C 74.85 148.89 71.63 148.43 70.18 145.56 Z" />
<path fill="#ffffff" opacity="1.00" d=" M 5.45 164.01 C 4.64 160.27 3.72 156.27 5.85 152.75 C 8.67 155.97 8.86 160.30 9.23 164.34 C 7.97 164.25 6.71 164.14 5.45 164.01 Z" />
<path fill="#ffffff" opacity="1.00" d=" M 208.66 198.32 C 211.70 198.32 214.76 198.95 217.27 200.74 C 214.12 201.51 210.76 200.97 208.66 198.32 Z" />
<path fill="#ffffff" opacity="1.00" d=" M 163.71 217.65 C 165.63 214.71 168.78 213.00 172.28 212.82 C 171.90 213.95 171.47 215.06 171.00 216.16 C 168.82 217.51 166.17 217.48 163.71 217.65 Z" />
</g>
</svg>
