<?xml version="1.0" encoding="UTF-8" ?>
<!DOCTYPE svg PUBLIC "-//W3C//DTD SVG 1.1//EN" "http://www.w3.org/Graphics/SVG/1.1/DTD/svg11.dtd">
<svg width="228pt" height="233pt" viewBox="0 0 228 233" version="1.1" xmlns="http://www.w3.org/2000/svg">
<g id="#ffffffff">
<path fill="#ffffff" opacity="1.00" d=" M 177.41 16.58 C 177.76 16.41 178.46 16.08 178.81 15.91 C 179.19 18.79 178.45 21.63 176.94 24.08 C 175.13 21.77 176.75 19.00 177.41 16.58 Z" />
<path fill="#ffffff" opacity="1.00" d=" M 172.94 31.80 C 177.16 29.68 180.76 24.81 185.79 25.27 C 187.81 28.16 184.39 31.05 183.96 34.00 C 185.84 33.19 187.60 32.12 189.55 31.44 C 186.93 37.13 182.30 41.64 179.39 47.21 C 180.08 48.84 180.76 50.47 181.35 52.14 C 179.49 52.89 177.56 53.37 175.58 53.61 C 175.68 55.05 175.85 56.49 175.80 57.94 C 173.89 61.32 170.81 64.02 169.56 67.78 C 168.79 70.14 168.11 72.57 166.60 74.60 C 161.16 82.49 155.76 90.42 150.31 98.30 C 147.79 101.20 144.54 103.38 142.03 106.31 C 142.27 107.45 142.54 108.58 142.81 109.71 C 139.39 114.36 137.79 120.22 133.17 124.00 C 135.93 126.15 138.70 128.35 140.83 131.17 C 144.66 135.77 150.06 138.58 154.48 142.48 C 159.44 149.58 166.06 155.54 173.79 159.49 C 173.11 164.12 169.47 167.71 169.14 172.40 C 170.79 172.86 172.60 174.66 174.27 173.32 C 176.60 172.10 177.17 168.61 179.91 168.12 C 185.05 169.58 185.40 175.80 186.21 180.17 C 187.94 178.68 189.66 176.79 192.18 177.54 C 194.28 184.32 200.40 188.20 205.98 191.88 C 204.69 193.00 202.35 193.26 201.70 194.92 C 203.34 199.16 208.04 203.14 206.35 207.96 C 203.74 207.26 201.30 206.07 198.77 205.14 C 199.25 206.99 199.84 208.81 200.32 210.67 C 194.90 207.32 190.71 202.27 184.97 199.35 C 183.76 200.26 182.04 201.48 180.53 200.49 C 179.99 198.89 179.84 197.20 179.70 195.53 C 175.12 196.53 172.18 192.48 168.78 190.22 C 166.19 188.13 162.52 188.18 160.05 185.93 C 153.23 180.41 146.43 174.86 139.56 169.41 C 135.84 166.70 133.82 162.41 130.54 159.26 C 129.45 159.30 128.35 159.40 127.26 159.38 C 122.05 155.82 116.36 152.81 112.33 147.79 C 111.99 148.40 111.30 149.62 110.95 150.23 C 108.11 150.49 105.24 150.37 102.40 150.57 C 99.76 151.15 97.76 153.14 95.95 155.03 C 100.00 155.69 102.80 160.58 100.89 164.31 C 96.75 166.32 96.00 158.74 92.39 159.45 C 91.41 162.66 93.74 165.70 93.18 168.92 C 92.81 171.64 92.41 174.49 90.77 176.80 C 89.00 178.90 85.38 178.42 83.93 180.89 C 76.05 193.65 68.33 206.94 57.13 217.12 C 53.76 219.32 51.58 222.68 49.44 225.99 C 48.22 224.88 47.13 223.65 46.08 222.40 C 38.90 223.42 31.71 222.18 24.57 221.46 C 22.92 218.41 20.20 216.23 17.64 213.98 C 20.29 207.86 22.97 201.50 27.60 196.58 C 29.16 194.78 31.58 194.20 33.87 194.33 C 35.30 189.57 35.95 184.25 39.48 180.46 C 41.37 178.03 44.25 176.77 46.96 175.50 C 48.96 176.64 50.90 177.88 53.06 178.70 C 52.78 175.69 52.31 172.71 52.05 169.71 C 53.60 169.75 55.16 169.94 56.71 169.78 C 58.65 168.93 60.31 167.58 62.30 166.84 C 62.30 165.02 62.37 163.21 62.46 161.40 C 66.16 158.69 67.67 154.06 70.98 151.09 C 71.89 152.03 72.76 153.02 73.58 154.05 C 72.75 155.67 71.96 157.30 71.22 158.96 C 73.69 158.74 76.60 158.24 77.68 155.65 C 82.85 148.03 77.70 138.28 82.11 130.44 C 86.08 134.28 87.00 140.20 86.46 145.49 C 90.76 143.79 92.26 138.90 94.42 135.21 C 92.22 134.57 90.02 133.95 87.80 133.38 C 88.24 129.88 90.25 126.64 89.60 123.04 C 89.62 118.71 90.38 113.65 86.70 110.45 C 84.67 109.41 84.73 112.62 83.36 113.41 C 81.29 114.51 78.87 115.29 76.57 114.40 C 74.85 110.09 81.14 109.41 82.42 106.00 C 79.30 104.41 76.20 106.86 72.98 106.41 C 68.88 106.03 63.95 104.34 63.22 99.68 C 62.77 95.97 58.91 94.75 56.38 92.66 C 44.99 84.28 33.27 75.63 25.30 63.74 C 23.47 61.71 20.97 60.42 19.24 58.29 C 20.76 57.13 23.54 56.46 23.15 53.99 C 23.00 47.44 24.49 41.03 25.62 34.62 C 28.53 32.96 30.70 30.36 33.30 28.30 C 35.28 28.17 36.90 29.65 38.60 30.45 C 43.01 33.14 47.86 35.73 50.74 40.17 C 51.86 41.64 51.70 43.51 51.60 45.24 C 55.67 46.75 60.35 47.26 63.65 50.33 C 66.41 52.77 68.90 55.94 68.99 59.78 C 68.26 61.86 66.77 63.55 65.79 65.50 C 68.67 65.46 71.55 65.22 74.43 65.08 C 73.55 68.77 75.11 72.05 76.72 75.25 C 78.81 75.73 81.58 74.94 83.01 76.91 C 85.41 79.79 88.30 82.19 91.49 84.14 C 91.24 84.79 90.75 86.09 90.50 86.74 C 88.06 87.15 85.90 85.92 83.71 85.08 C 83.81 87.73 84.50 90.71 87.21 91.86 C 94.47 96.59 103.79 92.37 111.11 96.99 C 107.30 100.98 101.08 101.60 95.90 100.56 C 97.14 104.82 101.53 106.66 104.90 108.94 C 106.96 104.53 110.46 101.25 113.96 97.96 C 118.53 93.64 120.76 87.52 124.88 82.88 C 131.57 77.44 136.63 70.27 140.08 62.41 C 144.18 63.61 148.05 65.44 152.15 66.64 C 152.97 65.42 153.82 64.22 154.50 62.91 C 154.29 59.26 149.37 58.79 148.19 55.98 C 148.97 50.26 155.61 49.20 160.25 48.29 C 158.91 46.92 157.25 45.77 156.43 43.98 C 157.36 40.79 161.08 40.37 163.06 38.07 C 165.94 35.40 167.59 31.80 169.39 28.38 C 171.45 27.62 171.82 30.69 172.94 31.80 M 165.27 50.03 C 167.58 50.03 169.27 48.98 169.00 46.47 C 168.22 46.26 166.66 45.84 165.88 45.64 C 163.84 46.52 164.95 48.45 165.27 50.03 M 53.15 62.59 C 53.04 67.48 52.64 74.22 58.49 76.03 C 59.70 71.60 57.24 67.47 55.50 63.57 C 54.92 63.32 53.74 62.83 53.15 62.59 M 137.77 73.33 C 138.17 74.71 138.61 76.08 139.06 77.44 C 140.05 76.95 140.98 76.36 141.85 75.69 C 142.16 74.24 141.01 73.18 140.32 72.06 C 139.68 72.38 138.41 73.01 137.77 73.33 M 64.07 75.44 C 64.17 76.97 64.31 78.50 64.45 80.03 C 65.39 79.73 66.34 79.41 67.28 79.09 C 66.92 77.84 66.57 76.60 66.24 75.35 C 65.70 75.38 64.61 75.42 64.07 75.44 M 131.60 84.78 C 131.46 86.37 131.39 87.97 131.38 89.57 C 132.08 89.83 133.47 90.35 134.17 90.62 C 134.94 88.51 135.76 86.34 135.13 84.08 C 133.95 84.30 132.77 84.53 131.60 84.78 M 134.95 104.99 C 134.02 107.78 133.41 110.67 132.30 113.40 C 131.08 115.07 129.54 116.48 128.24 118.08 C 129.27 119.69 130.53 121.14 131.90 122.47 C 133.62 117.52 136.68 112.82 136.72 107.44 C 136.28 106.83 135.40 105.60 134.95 104.99 M 95.21 127.62 C 97.71 125.40 97.76 121.88 96.42 119.04 C 94.66 121.61 93.11 124.70 95.21 127.62 M 101.59 134.03 C 101.59 134.64 101.58 135.86 101.58 136.46 C 102.73 136.56 103.90 136.63 105.06 136.68 C 104.02 135.65 102.84 134.79 101.59 134.03 M 100.77 139.31 C 101.67 144.62 107.90 144.34 111.24 147.38 C 111.61 146.99 112.34 146.22 112.71 145.83 C 117.21 149.06 122.22 151.72 127.51 153.39 C 129.27 154.09 131.02 153.54 132.24 152.13 C 128.83 150.49 124.73 149.84 122.16 146.82 C 120.44 144.97 118.23 143.66 115.87 142.80 C 113.71 142.62 111.51 142.92 109.37 142.52 C 106.44 141.60 103.83 139.83 100.77 139.31 M 147.67 149.19 C 147.44 149.87 146.97 151.21 146.73 151.89 C 148.65 152.80 150.62 153.75 152.80 153.20 C 152.73 152.39 152.58 150.77 152.51 149.96 C 150.90 149.64 149.29 149.39 147.67 149.19 M 158.88 158.00 C 159.50 158.92 160.13 159.84 160.76 160.77 C 161.55 160.46 163.11 159.86 163.90 159.56 C 163.70 158.45 163.49 157.34 163.27 156.25 C 161.78 156.78 160.32 157.38 158.88 158.00 M 63.27 177.19 C 63.26 177.94 63.24 179.42 63.23 180.16 C 64.69 179.72 66.17 179.33 67.56 178.71 C 67.41 177.85 67.24 177.00 67.03 176.15 C 65.78 176.49 64.52 176.83 63.27 177.19 M 50.88 191.62 C 55.78 191.60 63.44 191.09 63.80 184.70 C 59.06 185.27 52.88 186.81 50.88 191.62 M 183.95 185.41 C 184.16 186.88 184.40 188.35 184.75 189.80 C 185.45 189.65 186.84 189.34 187.54 189.19 C 187.68 187.89 187.80 186.59 187.87 185.29 C 186.56 185.30 185.25 185.34 183.95 185.41 Z" />
<path fill="#ffffff" opacity="1.00" d=" M 93.25 92.08 C 93.34 89.22 94.01 85.79 96.93 84.52 C 96.67 87.26 96.82 91.60 93.25 92.08 Z" />
<path fill="#ffffff" opacity="1.00" d=" M 70.00 145.48 C 72.71 145.89 77.96 145.43 77.51 149.55 C 74.77 148.75 71.28 148.51 70.00 145.48 Z" />
<path fill="#ffffff" opacity="1.00" d=" M 208.79 198.23 C 211.69 198.38 214.67 198.91 217.12 200.59 C 214.19 201.84 210.50 201.04 208.79 198.23 Z" />
</g>
</svg>
